<svg xmlns="http://www.w3.org/2000/svg" version="1.1" xmlns:xlink="http://www.w3.org/1999/xlink" xmlns:svgjs="http://svgjs.dev/svgjs" width="800px" height="800px"><svg width="800px" height="800px" viewBox="0 0 128 128" xmlns="http://www.w3.org/2000/svg" xmlns:xlink="http://www.w3.org/1999/xlink" aria-hidden="true" role="img" class="iconify iconify--noto" preserveAspectRatio="xMidYMid meet"><path d="M116.46 3.96h-104c-4.42 0-8 3.58-8 8v104c0 4.42 3.58 8 8 8h104c4.42 0 8-3.58 8-8v-104c0-4.42-3.58-8-8-8z" fill="#427687"></path><path d="M110.16 3.96h-98.2a7.555 7.555 0 0 0-7.5 7.5v97.9c-.01 4.14 3.34 7.49 7.48 7.5H110.06c4.14.01 7.49-3.34 7.5-7.48V11.46c.09-4.05-3.13-7.41-7.18-7.5h-.22z" fill="#8cafbf"></path><path d="M35.16 43.96a4.049 4.049 0 0 0 3.8-2.8c1.7-5.2 8.1-9.2 15.5-9.2c8.7 0 16 5.5 16 12v34c0 1.1-.9 2-2 2h-14a4 4 0 0 0-3 6.6l24 24a3.994 3.994 0 0 0 5.65.35c.13-.11.24-.23.35-.35l24-24a3.996 3.996 0 0 0-.44-5.64c-.71-.61-1.62-.95-2.56-.96h-14c-1.1 0-2-.9-2-2v-34c0-15.5-14.3-28-32-28c-15.8 0-29 10.1-31.5 23.3a3.996 3.996 0 0 0 3.9 4.7h8.3z" fill="#fafafa"></path><path d="M40.16 12.86c0-2.3-1.6-3-10.8-2.7c-7.7.3-11.5 1.2-13.8 4s-2.9 8.5-3 15.3c0 4.8 0 9.3 2.5 9.3c3.4 0 3.4-7.9 6.2-12.3c5.4-8.7 18.9-10.6 18.9-13.6z" opacity=".5" fill="#b4e1ed"></path></svg><style>@media (prefers-color-scheme: light) { :root { filter: none; } }
@media (prefers-color-scheme: dark) { :root { filter: none; } }
</style></svg>