<?xml version="1.0" standalone="no"?>
<!DOCTYPE svg PUBLIC "-//W3C//DTD SVG 20010904//EN"
 "http://www.w3.org/TR/2001/REC-SVG-20010904/DTD/svg10.dtd">
<svg version="1.0" xmlns="http://www.w3.org/2000/svg"
 width="395.000000pt" height="395.000000pt" viewBox="0 0 395.000000 395.000000"
 preserveAspectRatio="xMidYMid meet">
<metadata>
Created by potrace 1.14, written by Peter Selinger 2001-2017
</metadata>
<g transform="translate(0.000000,395.000000) scale(0.100000,-0.100000)"
fill="#000000" stroke="none">
<path d="M2379 3836 c-139 -31 -258 -117 -311 -226 -52 -108 -53 -117 -53
-665 0 -280 4 -532 8 -559 4 -28 18 -73 29 -100 55 -129 126 -195 264 -242 78
-27 83 -28 359 -30 242 -2 281 -5 291 -19 13 -18 15 -878 1 -891 -4 -4 -82 -8
-174 -7 -128 0 -167 4 -174 14 -5 8 -9 113 -9 233 l0 219 -34 33 -35 34 -228
-1 -228 0 -32 -34 -32 -34 0 -270 c0 -297 7 -351 59 -458 46 -92 164 -189 257
-208 10 -2 41 -9 68 -15 33 -7 170 -11 395 -11 313 0 352 2 422 20 180 47 273
136 328 313 17 56 19 100 20 602 0 360 -3 561 -11 601 -26 141 -112 257 -231
313 -101 48 -158 55 -446 57 -216 1 -265 4 -273 16 -14 23 -12 802 3 817 14
14 324 17 345 4 9 -6 13 -67 14 -231 l1 -224 31 -33 30 -34 232 0 231 0 33 34
32 33 0 264 c0 197 -4 282 -15 337 -39 186 -160 305 -351 345 -91 20 -729 21
-816 3z"/>
<path d="M606 2481 l-25 -26 0 -1151 -1 -1150 28 -26 c27 -26 28 -26 189 -26
151 1 163 2 189 23 l27 22 0 252 c0 228 1 251 16 245 62 -26 112 -33 234 -33
227 0 334 46 397 170 45 86 46 119 45 789 -1 349 -5 649 -8 667 -21 100 -86
186 -172 227 -73 34 -134 43 -290 40 -108 -1 -138 -5 -179 -23 l-48 -21 -20
22 c-18 22 -26 23 -189 23 -169 1 -169 1 -193 -24z m655 -351 c11 -7 13 -106
13 -563 -1 -305 -4 -561 -7 -571 -9 -24 -218 -24 -238 1 -11 13 -14 114 -15
552 -1 295 2 546 7 558 4 12 18 23 31 25 44 8 195 6 209 -2z"/>
</g>
</svg>
